# Billboard OBJ file - Rectangle on X-Y plane
# Created for displaying baselinexr.jpg
# Size: 100x40 units to match 1000x400px image ratio

mtllib billboard.mtl

# Vertices (X, Y, Z)
v -50.0 -20.0 0.0
v  50.0 -20.0 0.0
v  50.0  20.0 0.0
v -50.0  20.0 0.0

# Texture coordinates (U, V)
vt 0.0 0.0
vt 1.0 0.0
vt 1.0 1.0
vt 0.0 1.0

# Normals (pointing towards +Z)
vn 0.0 0.0 1.0
vn 0.0 0.0 1.0
vn 0.0 0.0 1.0
vn 0.0 0.0 1.0

# Use material
usemtl baselinexr_material

# Faces (vertex/texture/normal)
f 1/1/1 2/2/2 3/3/3
f 1/1/1 3/3/3 4/4/4