{
  "accessors": [
    {
      "name": "Node-Mesh_0_positions",
      "componentType": 5126,
      "count": 1600,
      "min": [
        -3.100019931793213,
        -3.100019931793213,
        -0.1000019982457161
      ],
      "max": [
        3.100019931793213,
        3.100019931793213,
        0.1000019982457161
      ],
      "type": "VEC3",
      "bufferView": 0,
      "byteOffset": 0
    },
    {
      "name": "Node-Mesh_0_indices",
      "componentType": 5123,
      "count": 9600,
      "min": [
        0
      ],
      "max": [
        1599
      ],
      "type": "SCALAR",
      "bufferView": 1,
      "byteOffset": 0
    },
    {
      "name": "Node-Mesh_1_positions",
      "componentType": 5126,
      "count": 129,
      "min": [
        -2.8989999294281006,
        -2.8989999294281006,
        0
      ],
      "max": [
        2.8989999294281006,
        2.8989999294281006,
        0
      ],
      "type": "VEC3",
      "bufferView": 0,
      "byteOffset": 19200
    },
    {
      "name": "Node-Mesh_1_indices",
      "componentType": 5123,
      "count": 384,
      "min": [
        0
      ],
      "max": [
        128
      ],
      "type": "SCALAR",
      "bufferView": 1,
      "byteOffset": 19200
    }
  ],
  "asset": {
    "generator": "obj2gltf",
    "version": "2.0"
  },
  "buffers": [
    {
      "name": "_portal",
      "byteLength": 40716,
      "uri": "data:application/octet-stream;base64,"
    }
  ],
  "bufferViews": [
    {
      "name": "bufferView_0",
      "buffer": 0,
      "byteLength": 20748,
      "byteOffset": 0,
      "byteStride": 12,
      "target": 34962
    },
    {
      "name": "bufferView_1",
      "buffer": 0,
      "byteLength": 19968,
      "byteOffset": 20748,
      "target": 34963
    }
  ],
  "materials": [
    {
      "name": "gold",
      "pbrMetallicRoughness": {
        "baseColorFactor": [
          1.0,
          0.843,
          0.0,
          1
        ],
        "metallicFactor": 0.8,
        "roughnessFactor": 0.2
      },
      "emissiveFactor": [
        0,
        0,
        0
      ],
      "alphaMode": "OPAQUE",
      "doubleSided": false
    },
    {
      "name": "black",
      "pbrMetallicRoughness": {
        "baseColorFactor": [
          0.0,
          0.0,
          0.0,
          1
        ],
        "metallicFactor": 0,
        "roughnessFactor": 1
      },
      "emissiveFactor": [
        0,
        0,
        0
      ],
      "alphaMode": "OPAQUE",
      "doubleSided": false
    }
  ],
  "meshes": [
    {
      "name": "Node-Mesh",
      "primitives": [
        {
          "attributes": {
            "POSITION": 0
          },
          "indices": 1,
          "material": 0,
          "mode": 4
        },
        {
          "attributes": {
            "POSITION": 2
          },
          "indices": 3,
          "material": 1,
          "mode": 4
        }
      ]
    }
  ],
  "nodes": [
    {
      "name": "Node",
      "mesh": 0
    }
  ],
  "scene": 0,
  "scenes": [
    {
      "nodes": [
        0
      ]
    }
  ]
}
