{
  "accessors": [
    {
      "bufferView": 0,
      "componentType": 5125,
      "count": 24000,
      "type": "SCALAR"
    },
    {
      "bufferView": 1,
      "componentType": 5126,
      "count": 4000,
      "min": [
        -21.00005340576172,
        -21.00005340576172,
        -0.999893307685852
      ],
      "max": [
        21.00005340576172,
        21.00005340576172,
        0.999893307685852
      ],
      "type": "VEC3"
    },
    {
      "bufferView": 2,
      "componentType": 5126,
      "count": 4000,
      "type": "VEC3"
    }
  ],
  "asset": {
    "version": "2.0"
  },
  "bufferViews": [
    {
      "buffer": 0,
      "byteLength": 96000,
      "target": 34963
    },
    {
      "buffer": 1,
      "byteLength": 48000,
      "target": 34962
    },
    {
      "buffer": 1,
      "byteLength": 48000,
      "byteOffset": 48000,
      "target": 34962
    }
  ],
  "materials": [
    {
      "name": "defaultMat",
      "pbrMetallicRoughness": {
        "baseColorFactor": [
          0.800000011920929,
          0.800000011920929,
          0.800000011920929,
          1.0
        ],
        "metallicFactor": 0.0,
        "roughnessFactor": 0.30151134729385378
      }
    }
  ],
  "meshes": [
    {
      "primitives": [
        {
          "attributes": {
            "NORMAL": 2,
            "POSITION": 1
          },
          "indices": 0,
          "material": 0,
          "mode": 4
        }
      ],
      "name": "default"
    }
  ],
  "nodes": [
    {
      "mesh": 0,
      "name": "default"
    },
    {
      "name": "ring-gold_root",
      "children": [
        0
      ]
    },
    {
      "scale": [
        0.009999999776482582,
        0.009999999776482582,
        0.009999999776482582
      ],
      "name": "RootNode",
      "children": [
        1
      ]
    }
  ],
  "scene": 0,
  "scenes": [
    {
      "nodes": [
        2
      ]
    }
  ],
  "buffers": [
    {
      "byteLength": 96000,
      "uri": "data:application/octet-stream;base64,"
    },
    {
      "byteLength": 96000,
      "uri": "data:application/octet-stream;base64,"
    }
  ]
}
