{
  "accessors": [
    {
      "bufferView": 0,
      "componentType": 5123,
      "count": 6999,
      "type": "SCALAR"
    },
    {
      "bufferView": 1,
      "componentType": 5126,
      "count": 6999,
      "max": [
        0.6470710039138794,
        6.962029457092285,
        0.9638670086860657
      ],
      "min": [
        -0.45000699162483215,
        5.165500164031982,
        0.37138599157333374
      ],
      "type": "VEC3"
    },
    {
      "bufferView": 2,
      "componentType": 5126,
      "count": 6999,
      "type": "VEC3"
    }
  ],
  "asset": {
    "minVersion": "2.0",
    "version": "2.0"
  },
  "bufferViews": [
    {
      "buffer": 0,
      "byteLength": 13998,
      "target": 34963
    },
    {
      "buffer": 0,
      "byteLength": 83988,
      "byteOffset": 14000,
      "target": 34962
    },
    {
      "buffer": 0,
      "byteLength": 83988,
      "byteOffset": 97988,
      "target": 34962
    }
  ],
  "buffers": [
    {
      "byteLength": 181976,
      "uri": "data:application/gltf-buffer;base64,"
    }
  ],
  "materials": [
    {
      "doubleSided": true,
      "extensions": {
        "KHR_materials_specular": {
          "specularFactor": 0.4830566346645355
        }
      },
      "name": "blinn10SG",
      "pbrMetallicRoughness": {
        "baseColorFactor": [
          0.06718999892473221,
          0.06718999892473221,
          0.06718999892473221,
          1
        ],
        "metallicFactor": 0.10519300401210785,
        "roughnessFactor": 0.8669577240943909
      }
    }
  ],
  "meshes": [
    {
      "name": "Object_41",
      "primitives": [
        {
          "attributes": {
            "NORMAL": 2,
            "POSITION": 1
          },
          "indices": 0,
          "material": 0
        }
      ]
    }
  ],
  "nodes": [
    {
      "children": [
        1
      ],
      "extras": {
        "meta_spatial": {
          "entity_id": "deathstar.obj.cleaner"
        }
      },
      "name": "deathstar.obj.cleaner"
    },
    {
      "extras": {
        "meta_spatial": {
          "entity_id": "Object_43"
        }
      },
      "mesh": 0,
      "name": "Object_43",
      "translation": [
        0,
        -5.392401695251465,
        0
      ]
    },
    {
      "children": [
        0
      ],
      "extras": {
        "meta_spatial": {
          "entity_id": "Sketchfab_model"
        }
      },
      "name": "Sketchfab_model",
      "rotation": [
        -0.70710688829422,
        0,
        0,
        0.7071066498756409
      ]
    }
  ],
  "scene": 0,
  "scenes": [
    {
      "nodes": [
        2
      ]
    }
  ]
}