{
  "accessors": [
    {
      "bufferView": 0,
      "componentType": 5123,
      "count": 231,
      "type": "SCALAR"
    },
    {
      "bufferView": 1,
      "componentType": 5126,
      "count": 231,
      "max": [
        -0.1761038452386856,
        4.1540846824646,
        0.48881998658180237
      ],
      "min": [
        -0.24167495965957642,
        0.10454733669757843,
        0.26427730917930603
      ],
      "type": "VEC3"
    },
    {
      "bufferView": 2,
      "componentType": 5126,
      "count": 231,
      "type": "VEC3"
    },
    {
      "bufferView": 3,
      "componentType": 5123,
      "count": 6999,
      "type": "SCALAR"
    },
    {
      "bufferView": 4,
      "componentType": 5126,
      "count": 6999,
      "max": [
        0.6470710039138794,
        6.962029457092285,
        0.9638670086860657
      ],
      "min": [
        -0.45000699162483215,
        5.165500164031982,
        0.37138599157333374
      ],
      "type": "VEC3"
    },
    {
      "bufferView": 5,
      "componentType": 5126,
      "count": 6999,
      "type": "VEC3"
    }
  ],
  "asset": {
    "minVersion": "2.0",
    "version": "2.0"
  },
  "bufferViews": [
    {
      "buffer": 0,
      "byteLength": 462,
      "target": 34963
    },
    {
      "buffer": 0,
      "byteLength": 2772,
      "byteOffset": 464,
      "target": 34962
    },
    {
      "buffer": 0,
      "byteLength": 2772,
      "byteOffset": 3236,
      "target": 34962
    },
    {
      "buffer": 1,
      "byteLength": 13998,
      "target": 34963
    },
    {
      "buffer": 1,
      "byteLength": 83988,
      "byteOffset": 14000,
      "target": 34962
    },
    {
      "buffer": 1,
      "byteLength": 83988,
      "byteOffset": 97988,
      "target": 34962
    }
  ],
  "buffers": [
    {
      "byteLength": 6008,
      "uri": "data:application/gltf-buffer;base64,"
    },
    {
      "byteLength": 181976,
      "uri": "data:application/gltf-buffer;base64,"
    }
  ],
  "materials": [
    {
      "doubleSided": true,
      "emissiveFactor": [
        0.250980406999588,
        1,
        0
      ],
      "name": "blinn8SG",
      "pbrMetallicRoughness": {
        "baseColorFactor": [
          0.25,
          1,
          0,
          1
        ],
        "metallicFactor": 0,
        "roughnessFactor": 0.6000000238418579
      }
    },
    {
      "doubleSided": true,
      "extensions": {
        "KHR_materials_specular": {
          "specularFactor": 0.4830566346645355
        }
      },
      "name": "blinn10SG",
      "pbrMetallicRoughness": {
        "baseColorFactor": [
          0.06718999892473221,
          0.06718999892473221,
          0.06718999892473221,
          1
        ],
        "metallicFactor": 0.10519300401210785,
        "roughnessFactor": 0.8669577240943909
      }
    }
  ],
  "meshes": [
    {
      "name": "Object_41",
      "primitives": [
        {
          "attributes": {
            "NORMAL": 5,
            "POSITION": 4
          },
          "indices": 3,
          "material": 1
        },
        {
          "attributes": {
            "NORMAL": 2,
            "POSITION": 1
          },
          "indices": 0,
          "material": 0
        }
      ]
    }
  ],
  "nodes": [
    {
      "extras": {
        "meta_spatial": {
          "entity_id": "Object_43"
        }
      },
      "mesh": 0,
      "name": "Object_43"
    },
    {
      "children": [
        0
      ],
      "extras": {
        "meta_spatial": {
          "entity_id": "deathstar.obj.cleaner"
        }
      },
      "name": "deathstar.obj.cleaner"
    },
    {
      "children": [
        1
      ],
      "extras": {
        "meta_spatial": {
          "entity_id": "Sketchfab_model"
        }
      },
      "name": "Sketchfab_model",
      "rotation": [
        -0.70710688829422,
        0,
        0,
        0.7071066498756409
      ]
    }
  ],
  "scene": 0,
  "scenes": [
    {
      "nodes": [
        2
      ]
    }
  ]
}