{
  "accessors": [
    {
      "bufferView": 0,
      "componentType": 5123,
      "count": 14400,
      "type": "SCALAR"
    },
    {
      "bufferView": 1,
      "componentType": 5126,
      "count": 2400,
      "max": [
        21.00005340576172,
        21.00005340576172,
        0.999893307685852
      ],
      "min": [
        -21.00005340576172,
        -21.00005340576172,
        -0.999893307685852
      ],
      "type": "VEC3"
    },
    {
      "bufferView": 2,
      "componentType": 5126,
      "count": 2400,
      "type": "VEC3"
    }
  ],
  "asset": {
    "minVersion": "2.0",
    "version": "2.0"
  },
  "bufferViews": [
    {
      "buffer": 0,
      "byteLength": 28800,
      "target": 34963
    },
    {
      "buffer": 0,
      "byteLength": 28800,
      "byteOffset": 28800,
      "target": 34962
    },
    {
      "buffer": 0,
      "byteLength": 28800,
      "byteOffset": 57600,
      "target": 34962
    }
  ],
  "buffers": [
    {
      "byteLength": 86400,
      "uri": "data:application/gltf-buffer;base64,"
    }
  ],
  "materials": [
    {
      "name": "defaultMat",
      "pbrMetallicRoughness": {
        "baseColorFactor": [
          0.800000011920929,
          0.800000011920929,
          0.800000011920929,
          1
        ],
        "metallicFactor": 0,
        "roughnessFactor": 0.30151134729385376
      }
    }
  ],
  "meshes": [
    {
      "name": "default",
      "primitives": [
        {
          "attributes": {
            "NORMAL": 2,
            "POSITION": 1
          },
          "indices": 0,
          "material": 0
        }
      ]
    }
  ],
  "nodes": [
    {
      "extras": {
        "meta_spatial": {
          "entity_id": "default"
        }
      },
      "mesh": 0,
      "name": "default"
    },
    {
      "children": [
        0
      ],
      "extras": {
        "meta_spatial": {
          "entity_id": "jscad_root"
        }
      },
      "name": "jscad_root"
    },
    {
      "children": [
        1
      ],
      "extras": {
        "meta_spatial": {
          "entity_id": "RootNode"
        }
      },
      "name": "RootNode",
      "scale": [
        0.009999999776482582,
        0.009999999776482582,
        0.009999999776482582
      ]
    }
  ],
  "scene": 0,
  "scenes": [
    {
      "nodes": [
        2
      ]
    }
  ]
}