{
  "accessors": [
    {
      "bufferView": 0,
      "componentType": 5125,
      "count": 372,
      "type": "SCALAR"
    },
    {
      "bufferView": 1,
      "componentType": 5126,
      "count": 192,
      "min": [
        -0.30000001192092898,
        -0.27765509486198428,
        -0.02234494686126709
      ],
      "max": [
        0.30000001192092898,
        0.32234492897987368,
        0.022344930097460748
      ],
      "type": "VEC3"
    },
    {
      "bufferView": 2,
      "componentType": 5126,
      "count": 192,
      "type": "VEC3"
    },
    {
      "bufferView": 3,
      "componentType": 5126,
      "count": 192,
      "type": "VEC2"
    }
  ],
  "asset": {
    "version": "2.0"
  },
  "bufferViews": [
    {
      "buffer": 0,
      "byteLength": 1488,
      "target": 34963
    },
    {
      "buffer": 1,
      "byteLength": 2304,
      "target": 34962
    },
    {
      "buffer": 1,
      "byteLength": 2304,
      "byteOffset": 2304,
      "target": 34962
    },
    {
      "buffer": 1,
      "byteLength": 1536,
      "byteOffset": 4608,
      "target": 34962
    }
  ],
  "materials": [
    {
      "name": "target",
      "doubleSided": true,
      "pbrMetallicRoughness": {
        "metallicFactor": 0.0,
        "roughnessFactor": 0.5,
        "baseColorTexture": {
          "index": 0
        }
      }
    }
  ],
  "meshes": [
    {
      "primitives": [
        {
          "attributes": {
            "NORMAL": 2,
            "POSITION": 1,
            "TEXCOORD_0": 3
          },
          "indices": 0,
          "material": 0,
          "mode": 4
        }
      ],
      "name": "Circle"
    }
  ],
  "nodes": [
    {
      "mesh": 0,
      "name": "Circle"
    }
  ],
  "scene": 0,
  "scenes": [
    {
      "nodes": [
        0
      ]
    }
  ],
  "textures": [
    {
      "sampler": 0,
      "source": 0,
      "name": "texture1"
    }
  ],
  "samplers": [
    {
      "name": "sampler0",
      "magFilter": 9729,
      "minFilter": 9987,
      "wrapS": 10497,
      "wrapT": 10497
    }
  ],
  "buffers": [
    {
      "byteLength": 1488,
      "uri": "data:application/octet-stream;base64,"
    },
    {
      "byteLength": 6144,
      "uri": "data:application/octet-stream;base64,"
    }
  ],
  "images": [
    {
      "uri": "8a0cca15fa57748e561c5839d0c08221.png",
      "name": "target"
    }
  ]
}
