{
  "accessors": [
    {
      "bufferView": 0,
      "componentType": 5125,
      "count": 108312,
      "type": "SCALAR"
    },
    {
      "bufferView": 1,
      "componentType": 5126,
      "count": 71975,
      "max": [
        3.0479280948638916,
        7.038504123687744,
        1.2306760549545288
      ],
      "min": [
        -3.0065410137176514,
        -9.038498878479004,
        -2.2808969020843506
      ],
      "type": "VEC3"
    },
    {
      "bufferView": 2,
      "componentType": 5126,
      "count": 71975,
      "type": "VEC3"
    },
    {
      "bufferView": 3,
      "componentType": 5126,
      "count": 71975,
      "type": "VEC2"
    }
  ],
  "asset": {
    "minVersion": "2.0",
    "version": "2.0"
  },
  "bufferViews": [
    {
      "buffer": 0,
      "byteLength": 433248,
      "target": 34963
    },
    {
      "buffer": 0,
      "byteLength": 863700,
      "byteOffset": 433248,
      "target": 34962
    },
    {
      "buffer": 0,
      "byteLength": 863700,
      "byteOffset": 1296948,
      "target": 34962
    },
    {
      "buffer": 0,
      "byteLength": 575800,
      "byteOffset": 2160648,
      "target": 34962
    }
  ],
  "buffers": [
    {
      "byteLength": 2736448,
      "uri": "data:application/gltf-buffer;base64,"
    }
  ],
  "images": [
    {
      "mimeType": "image/png",
      "name": "trench8bake2",
      "uri": "dfae7548141c52da7130090d394eda5e.png"
    }
  ],
  "materials": [
    {
      "doubleSided": true,
      "name": "Material.002",
      "pbrMetallicRoughness": {
        "baseColorTexture": {
          "index": 0
        },
        "metallicFactor": 0.17954546213150024,
        "roughnessFactor": 0.8704545497894287
      }
    }
  ],
  "meshes": [
    {
      "name": "deathstar",
      "primitives": [
        {
          "attributes": {
            "NORMAL": 2,
            "POSITION": 1,
            "TEXCOORD_0": 3
          },
          "indices": 0,
          "material": 0
        }
      ]
    }
  ],
  "nodes": [
    {
      "extras": {
        "meta_spatial": {
          "entity_id": "deathstar1"
        }
      },
      "mesh": 0,
      "name": "deathstar",
      "rotation": [
        0.7071068286895752,
        0,
        0,
        0.7071068286895752
      ]
    }
  ],
  "samplers": [
    {
      "magFilter": 9729,
      "minFilter": 9987,
      "name": "sampler0"
    }
  ],
  "scene": 0,
  "scenes": [
    {
      "nodes": [
        0
      ]
    }
  ],
  "textures": [
    {
      "name": "texture1",
      "sampler": 0,
      "source": 0
    }
  ]
}